<?xml version="1.0" encoding="UTF-8" standalone="no"?><!-- Generator: Gravit.io --><svg xmlns="http://www.w3.org/2000/svg" xmlns:xlink="http://www.w3.org/1999/xlink" style="isolation:isolate" viewBox="0 0 1366 768" width="1366pt" height="768pt"><defs><clipPath id="_clipPath_MUTNqk0GS1CT6vsJfSoBkFIsbGBdAYx7"><rect width="1366" height="768"/></clipPath></defs><g clip-path="url(#_clipPath_MUTNqk0GS1CT6vsJfSoBkFIsbGBdAYx7)"><rect x="0" y="0" width="1366" height="40" transform="matrix(1,0,0,1,0,0)" fill="rgb(209,209,209)"/><rect x="0" y="728" width="1366" height="40" transform="matrix(1,0,0,1,0,0)" fill="rgb(209,209,209)"/><text transform="matrix(1,0,0,1,586,755.759)" style="font-family:'Open Sans';font-weight:400;font-size:20px;font-style:normal;fill:#000000;stroke:none;">lateinit.apps (c) 2077</text><text transform="matrix(1,0,0,1,8,27.759)" style="font-family:'Open Sans';font-weight:400;font-size:20px;font-style:normal;fill:#000000;stroke:none;">taburet.xyz</text><rect x="359" y="79" width="648" height="53" transform="matrix(1,0,0,1,0,0)" fill="rgb(235,235,235)"/><text transform="matrix(1,0,0,1,373,113.259)" style="font-family:'Open Sans';font-weight:400;font-size:20px;font-style:normal;fill:#000000;stroke:none;">Search</text><path d=" M 1052.14 83.833 C 1046.159 83.833 1041.28 88.712 1041.28 94.693 C 1041.28 95.656 1041.536 96.528 1041.769 97.386 L 1041.112 98.043 L 1035.851 92.773 L 1035.851 88.511 L 1035.215 88.117 L 1028.873 84.153 L 1025.309 87.65 L 1029.661 94.693 L 1033.934 94.693 L 1039.204 99.954 L 1029.299 109.858 C 1027.189 111.982 1027.189 115.412 1029.299 117.536 C 1031.409 119.646 1034.865 119.646 1036.977 117.536 L 1043.995 110.515 L 1051.016 117.536 C 1053.126 119.646 1056.582 119.646 1058.694 117.536 C 1060.805 115.412 1060.805 111.982 1058.694 109.858 L 1054.176 105.341 C 1059.288 104.363 1062.989 99.897 1063 94.693 C 1063 92.879 1062.511 91.19 1061.751 89.719 L 1060.89 88.074 L 1059.587 89.39 L 1053.75 95.211 L 1051.622 93.08 L 1058.759 85.931 L 1057.114 85.084 C 1055.581 84.274 1053.875 83.845 1052.14 83.833 Z  M 1052.14 86.548 C 1052.757 86.548 1053.286 86.846 1053.87 86.993 L 1047.783 93.08 L 1053.753 99.053 L 1059.851 92.963 C 1059.986 93.547 1060.285 94.076 1060.285 94.693 C 1060.285 99.21 1056.658 102.837 1052.14 102.837 C 1051.206 102.837 1050.316 102.647 1049.425 102.327 L 1048.619 102.053 L 1035.055 115.617 C 1034.549 116.13 1033.857 116.419 1033.136 116.419 C 1032.414 116.419 1031.723 116.13 1031.216 115.617 C 1030.703 115.11 1030.413 114.419 1030.413 113.697 C 1030.413 112.976 1030.703 112.284 1031.216 111.778 L 1044.78 98.214 L 1044.506 97.407 C 1044.179 96.539 1044.007 95.62 1043.995 94.693 C 1043.995 90.175 1047.623 86.548 1052.14 86.548 Z  M 1029.253 87.588 L 1033.136 90.015 L 1033.136 91.755 L 1032.913 91.978 L 1031.184 91.978 L 1028.756 88.065 L 1029.253 87.588 Z  M 1049.447 105.064 C 1049.721 105.14 1049.998 105.202 1050.275 105.275 L 1056.775 111.778 C 1057.288 112.284 1057.578 112.976 1057.578 113.697 C 1057.578 114.419 1057.288 115.11 1056.775 115.617 C 1056.268 116.13 1055.577 116.419 1054.855 116.419 C 1054.134 116.419 1053.442 116.13 1052.936 115.617 L 1045.915 108.596 L 1049.447 105.064 Z " fill="rgb(0,0,0)"/><path d=" M 209.851 203.847 C 204.439 203.847 200 208.287 200 213.698 L 200 266.236 C 200 271.648 204.439 276.087 209.851 276.087 L 282.091 276.087 C 287.503 276.087 291.942 271.648 291.942 266.236 L 291.942 213.698 C 291.942 208.287 287.503 203.847 282.091 203.847 L 209.851 203.847 Z  M 209.851 210.414 L 282.091 210.414 C 283.937 210.414 285.375 211.853 285.375 213.698 L 285.375 255.538 L 255.848 230.294 L 246.687 238.128 L 229.553 223.746 L 206.567 243.054 L 206.567 213.698 C 206.567 211.853 208.006 210.414 209.851 210.414 Z  M 272.24 216.982 C 268.628 216.982 265.673 219.937 265.673 223.549 C 265.673 227.161 268.628 230.116 272.24 230.116 C 275.852 230.116 278.808 227.161 278.808 223.549 C 278.808 219.937 275.852 216.982 272.24 216.982 Z  M 229.553 232.323 L 241.61 242.456 L 209.956 269.52 L 209.851 269.52 C 208.977 269.531 208.135 269.188 207.517 268.57 C 206.899 267.952 206.557 267.111 206.567 266.236 L 206.567 251.611 L 229.553 232.323 Z  M 255.848 238.943 L 285.375 264.187 L 285.375 266.236 C 285.375 268.082 283.937 269.52 282.091 269.52 L 220.063 269.52 L 255.848 238.943 Z " fill="rgb(0,0,0)"/><rect x="300.5" y="212.76" width="765" height="54.415" transform="matrix(1,0,0,1,0,0)" fill="rgb(235,235,235)"/><text transform="matrix(1,0,0,1,314.24,247.726)" style="font-family:'Open Sans';font-weight:400;font-size:20px;font-style:normal;fill:#000000;stroke:none;">TOP AUTHOR IN THE WORLD - TOP RELEASE IN THE WORLD (1988)</text><path d=" M 209.851 291.76 C 204.439 291.76 200 296.199 200 301.611 L 200 354.149 C 200 359.561 204.439 364 209.851 364 L 282.091 364 C 287.503 364 291.942 359.561 291.942 354.149 L 291.942 301.611 C 291.942 296.199 287.503 291.76 282.091 291.76 L 209.851 291.76 Z  M 209.851 298.327 L 282.091 298.327 C 283.937 298.327 285.375 299.765 285.375 301.611 L 285.375 343.451 L 255.848 318.206 L 246.687 326.041 L 229.553 311.659 L 206.567 330.967 L 206.567 301.611 C 206.567 299.765 208.006 298.327 209.851 298.327 Z  M 272.24 304.894 C 268.628 304.894 265.673 307.85 265.673 311.462 C 265.673 315.074 268.628 318.029 272.24 318.029 C 275.852 318.029 278.808 315.074 278.808 311.462 C 278.808 307.85 275.852 304.894 272.24 304.894 Z  M 229.553 320.236 L 241.61 330.369 L 209.956 357.433 L 209.851 357.433 C 208.977 357.443 208.135 357.101 207.517 356.483 C 206.899 355.865 206.557 355.023 206.567 354.149 L 206.567 339.524 L 229.553 320.236 Z  M 255.848 326.855 L 285.375 352.1 L 285.375 354.149 C 285.375 355.994 283.937 357.433 282.091 357.433 L 220.063 357.433 L 255.848 326.855 Z " fill="rgb(0,0,0)"/><rect x="300.5" y="300.672" width="765" height="54.415" transform="matrix(1,0,0,1,0,0)" fill="rgb(235,235,235)"/><text transform="matrix(1,0,0,1,314.24,335.639)" style="font-family:'Open Sans';font-weight:400;font-size:20px;font-style:normal;fill:#000000;stroke:none;">TOP AUTHOR IN THE WORLD - TOP RELEASE IN THE WORLD (1988)</text><path d=" M 209.851 388.585 C 204.439 388.585 200 393.024 200 398.436 L 200 450.974 C 200 456.386 204.439 460.825 209.851 460.825 L 282.091 460.825 C 287.503 460.825 291.942 456.386 291.942 450.974 L 291.942 398.436 C 291.942 393.024 287.503 388.585 282.091 388.585 L 209.851 388.585 Z  M 209.851 395.152 L 282.091 395.152 C 283.937 395.152 285.375 396.59 285.375 398.436 L 285.375 440.276 L 255.848 415.031 L 246.687 422.866 L 229.553 408.484 L 206.567 427.792 L 206.567 398.436 C 206.567 396.59 208.006 395.152 209.851 395.152 Z  M 272.24 401.72 C 268.628 401.72 265.673 404.675 265.673 408.287 C 265.673 411.899 268.628 414.854 272.24 414.854 C 275.852 414.854 278.808 411.899 278.808 408.287 C 278.808 404.675 275.852 401.72 272.24 401.72 Z  M 229.553 417.061 L 241.61 427.194 L 209.956 454.258 L 209.851 454.258 C 208.977 454.269 208.135 453.926 207.517 453.308 C 206.899 452.69 206.557 451.848 206.567 450.974 L 206.567 436.349 L 229.553 417.061 Z  M 255.848 423.681 L 285.375 448.925 L 285.375 450.974 C 285.375 452.82 283.937 454.258 282.091 454.258 L 220.063 454.258 L 255.848 423.681 Z " fill="rgb(0,0,0)"/><rect x="300.5" y="397.498" width="765" height="54.415" transform="matrix(1,0,0,1,0,0)" fill="rgb(235,235,235)"/><text transform="matrix(1,0,0,1,314.24,432.464)" style="font-family:'Open Sans';font-weight:400;font-size:20px;font-style:normal;fill:#000000;stroke:none;">TOP AUTHOR IN THE WORLD - TOP RELEASE IN THE WORLD (1988)</text><path d=" M 209.851 485.41 C 204.439 485.41 200 489.85 200 495.261 L 200 547.799 C 200 553.211 204.439 557.65 209.851 557.65 L 282.091 557.65 C 287.503 557.65 291.942 553.211 291.942 547.799 L 291.942 495.261 C 291.942 489.85 287.503 485.41 282.091 485.41 L 209.851 485.41 Z  M 209.851 491.977 L 282.091 491.977 C 283.937 491.977 285.375 493.416 285.375 495.261 L 285.375 537.101 L 255.848 511.857 L 246.687 519.691 L 229.553 505.309 L 206.567 524.617 L 206.567 495.261 C 206.567 493.416 208.006 491.977 209.851 491.977 Z  M 272.24 498.545 C 268.628 498.545 265.673 501.5 265.673 505.112 C 265.673 508.724 268.628 511.679 272.24 511.679 C 275.852 511.679 278.808 508.724 278.808 505.112 C 278.808 501.5 275.852 498.545 272.24 498.545 Z  M 229.553 513.886 L 241.61 524.019 L 209.956 551.083 L 209.851 551.083 C 208.977 551.094 208.135 550.751 207.517 550.133 C 206.899 549.515 206.557 548.674 206.567 547.799 L 206.567 533.174 L 229.553 513.886 Z  M 255.848 520.506 L 285.375 545.75 L 285.375 547.799 C 285.375 549.645 283.937 551.083 282.091 551.083 L 220.063 551.083 L 255.848 520.506 Z " fill="rgb(0,0,0)"/><rect x="300.5" y="494.323" width="765" height="54.415" transform="matrix(1,0,0,1,0,0)" fill="rgb(235,235,235)"/><text transform="matrix(1,0,0,1,314.24,529.289)" style="font-family:'Open Sans';font-weight:400;font-size:20px;font-style:normal;fill:#000000;stroke:none;">TOP AUTHOR IN THE WORLD - TOP RELEASE IN THE WORLD (1988)</text><path d=" M 209.851 582.235 C 204.439 582.235 200 586.675 200 592.086 L 200 644.625 C 200 650.036 204.439 654.476 209.851 654.476 L 282.091 654.476 C 287.503 654.476 291.942 650.036 291.942 644.625 L 291.942 592.086 C 291.942 586.675 287.503 582.235 282.091 582.235 L 209.851 582.235 Z  M 209.851 588.803 L 282.091 588.803 C 283.937 588.803 285.375 590.241 285.375 592.086 L 285.375 633.927 L 255.848 608.682 L 246.687 616.517 L 229.553 602.134 L 206.567 621.442 L 206.567 592.086 C 206.567 590.241 208.006 588.803 209.851 588.803 Z  M 272.24 595.37 C 268.628 595.37 265.673 598.325 265.673 601.937 C 265.673 605.549 268.628 608.505 272.24 608.505 C 275.852 608.505 278.808 605.549 278.808 601.937 C 278.808 598.325 275.852 595.37 272.24 595.37 Z  M 229.553 610.711 L 241.61 620.844 L 209.956 647.908 L 209.851 647.908 C 208.977 647.919 208.135 647.576 207.517 646.958 C 206.899 646.34 206.557 645.499 206.567 644.625 L 206.567 629.999 L 229.553 610.711 Z  M 255.848 617.331 L 285.375 642.576 L 285.375 644.625 C 285.375 646.47 283.937 647.908 282.091 647.908 L 220.063 647.908 L 255.848 617.331 Z " fill="rgb(0,0,0)"/><rect x="300.5" y="591.148" width="765" height="54.415" transform="matrix(1,0,0,1,0,0)" fill="rgb(235,235,235)"/><text transform="matrix(1,0,0,1,314.24,626.114)" style="font-family:'Open Sans';font-weight:400;font-size:20px;font-style:normal;fill:#000000;stroke:none;">TOP AUTHOR IN THE WORLD - TOP RELEASE IN THE WORLD (1988)</text><path d=" M 1103.781 217.938 C 1102.752 218.051 1101.979 218.931 1102 219.967 L 1102 243.687 L 1098.406 240.093 C 1097.922 239.596 1097.216 239.386 1096.539 239.537 C 1095.862 239.688 1095.312 240.179 1095.086 240.835 C 1094.828 241.574 1095.027 242.397 1095.594 242.937 L 1104 251.343 L 1112.406 242.936 C 1112.929 242.436 1113.142 241.693 1112.963 240.993 C 1112.784 240.292 1112.241 239.742 1111.543 239.554 C 1110.843 239.366 1110.098 239.574 1109.593 240.093 L 1106 243.687 L 1106 219.97 C 1106.009 219.428 1105.798 218.907 1105.415 218.524 C 1105.032 218.141 1104.51 217.929 1103.969 217.938 C 1103.906 217.934 1103.844 217.934 1103.781 217.938 Z  M 1081 251 L 1081 256.688 C 1081 258.164 1081.45 259.594 1082.5 260.594 C 1083.55 261.594 1084.996 262 1086.438 262 L 1121.594 262 C 1123.054 262 1124.5 261.586 1125.531 260.562 C 1126.563 259.54 1127 258.06 1127 256.594 L 1127 251 L 1123 251 L 1123 256.594 C 1123 257.328 1122.844 257.598 1122.719 257.719 C 1122.594 257.839 1122.332 258 1121.594 258 L 1086.437 258 C 1085.68 258 1085.402 257.832 1085.281 257.719 C 1085.161 257.605 1085 257.414 1085 256.687 L 1085 251 L 1081 251 Z " fill="rgb(0,0,0)"/><path d=" M 1103.781 305.85 C 1102.752 305.964 1101.979 306.844 1102 307.879 L 1102 331.599 L 1098.406 328.005 C 1097.922 327.509 1097.216 327.298 1096.539 327.449 C 1095.862 327.601 1095.312 328.092 1095.086 328.747 C 1094.828 329.487 1095.027 330.309 1095.594 330.849 L 1104 339.255 L 1112.406 330.848 C 1112.929 330.349 1113.142 329.606 1112.963 328.905 C 1112.784 328.204 1112.241 327.654 1111.543 327.466 C 1110.843 327.278 1110.098 327.486 1109.593 328.005 L 1106 331.599 L 1106 307.882 C 1106.009 307.341 1105.798 306.819 1105.415 306.436 C 1105.032 306.053 1104.51 305.842 1103.969 305.85 C 1103.906 305.846 1103.844 305.846 1103.781 305.85 Z  M 1081 338.912 L 1081 344.6 C 1081 346.076 1081.45 347.506 1082.5 348.506 C 1083.55 349.506 1084.996 349.912 1086.438 349.912 L 1121.594 349.912 C 1123.054 349.912 1124.5 349.498 1125.531 348.474 C 1126.563 347.452 1127 345.972 1127 344.506 L 1127 338.912 L 1123 338.912 L 1123 344.506 C 1123 345.24 1122.844 345.51 1122.719 345.631 C 1122.594 345.751 1122.332 345.912 1121.594 345.912 L 1086.437 345.912 C 1085.68 345.912 1085.402 345.744 1085.281 345.631 C 1085.161 345.517 1085 345.326 1085 344.599 L 1085 338.912 L 1081 338.912 Z " fill="rgb(0,0,0)"/><path d=" M 1103.781 402.676 C 1102.752 402.789 1101.979 403.669 1102 404.705 L 1102 428.425 L 1098.406 424.831 C 1097.922 424.334 1097.216 424.123 1096.539 424.275 C 1095.862 424.426 1095.312 424.917 1095.086 425.573 C 1094.828 426.312 1095.027 427.134 1095.594 427.675 L 1104 436.081 L 1112.406 427.674 C 1112.929 427.174 1113.142 426.431 1112.963 425.73 C 1112.784 425.03 1112.241 424.48 1111.543 424.292 C 1110.843 424.104 1110.098 424.312 1109.593 424.831 L 1106 428.425 L 1106 404.708 C 1106.009 404.166 1105.798 403.644 1105.415 403.261 C 1105.032 402.878 1104.51 402.667 1103.969 402.676 C 1103.906 402.672 1103.844 402.672 1103.781 402.676 Z  M 1081 435.738 L 1081 441.426 C 1081 442.902 1081.45 444.332 1082.5 445.332 C 1083.55 446.332 1084.996 446.738 1086.438 446.738 L 1121.594 446.738 C 1123.054 446.738 1124.5 446.324 1125.531 445.3 C 1126.563 444.278 1127 442.798 1127 441.332 L 1127 435.738 L 1123 435.738 L 1123 441.332 C 1123 442.066 1122.844 442.336 1122.719 442.457 C 1122.594 442.577 1122.332 442.738 1121.594 442.738 L 1086.437 442.738 C 1085.68 442.738 1085.402 442.57 1085.281 442.457 C 1085.161 442.343 1085 442.152 1085 441.425 L 1085 435.738 L 1081 435.738 Z " fill="rgb(0,0,0)"/><path d=" M 1103.781 491.086 C 1102.752 491.2 1101.979 492.08 1102 493.115 L 1102 516.835 L 1098.406 513.241 C 1097.922 512.745 1097.216 512.534 1096.539 512.686 C 1095.862 512.837 1095.312 513.328 1095.086 513.983 C 1094.828 514.723 1095.027 515.545 1095.594 516.085 L 1104 524.491 L 1112.406 516.084 C 1112.929 515.585 1113.142 514.842 1112.963 514.141 C 1112.784 513.44 1112.241 512.891 1111.543 512.702 C 1110.843 512.514 1110.098 512.722 1109.593 513.241 L 1106 516.835 L 1106 493.118 C 1106.009 492.577 1105.798 492.055 1105.415 491.672 C 1105.032 491.289 1104.51 491.078 1103.969 491.086 C 1103.906 491.082 1103.844 491.082 1103.781 491.086 Z  M 1081 524.148 L 1081 529.836 C 1081 531.312 1081.45 532.742 1082.5 533.742 C 1083.55 534.742 1084.996 535.148 1086.438 535.148 L 1121.594 535.148 C 1123.054 535.148 1124.5 534.734 1125.531 533.71 C 1126.563 532.688 1127 531.208 1127 529.742 L 1127 524.148 L 1123 524.148 L 1123 529.742 C 1123 530.476 1122.844 530.746 1122.719 530.867 C 1122.594 530.987 1122.332 531.148 1121.594 531.148 L 1086.437 531.148 C 1085.68 531.148 1085.402 530.98 1085.281 530.867 C 1085.161 530.753 1085 530.562 1085 529.835 L 1085 524.148 L 1081 524.148 Z " fill="rgb(0,0,0)"/><path d=" M 1103.781 596.326 C 1102.752 596.439 1101.979 597.319 1102 598.355 L 1102 622.075 L 1098.406 618.481 C 1097.922 617.984 1097.216 617.774 1096.539 617.925 C 1095.862 618.076 1095.312 618.568 1095.086 619.223 C 1094.828 619.963 1095.027 620.785 1095.594 621.325 L 1104 629.731 L 1112.406 621.324 C 1112.929 620.824 1113.142 620.081 1112.963 619.381 C 1112.784 618.68 1112.241 618.13 1111.543 617.942 C 1110.843 617.754 1110.098 617.962 1109.593 618.481 L 1106 622.075 L 1106 598.358 C 1106.009 597.817 1105.798 597.295 1105.415 596.912 C 1105.032 596.529 1104.51 596.317 1103.969 596.326 C 1103.906 596.322 1103.844 596.322 1103.781 596.326 Z  M 1081 629.388 L 1081 635.076 C 1081 636.552 1081.45 637.982 1082.5 638.982 C 1083.55 639.982 1084.996 640.388 1086.438 640.388 L 1121.594 640.388 C 1123.054 640.388 1124.5 639.974 1125.531 638.95 C 1126.563 637.928 1127 636.448 1127 634.982 L 1127 629.388 L 1123 629.388 L 1123 634.982 C 1123 635.716 1122.844 635.986 1122.719 636.107 C 1122.594 636.227 1122.332 636.388 1121.594 636.388 L 1086.437 636.388 C 1085.68 636.388 1085.402 636.22 1085.281 636.107 C 1085.161 635.993 1085 635.802 1085 635.075 L 1085 629.388 L 1081 629.388 Z " fill="rgb(0,0,0)"/><text transform="matrix(1,0,0,1,300.5,175.377)" style="font-family:'Open Sans';font-weight:400;font-size:20px;font-style:normal;fill:#000000;stroke:none;">TOP SKOKOTOTAM CHETO TAM SONGS</text><path d=" M 1229.75 75.75 C 1213.316 75.75 1200 89.066 1200 105.5 C 1200 121.934 1213.316 135.25 1229.75 135.25 C 1246.184 135.25 1259.5 121.934 1259.5 105.5 C 1259.5 89.066 1246.184 75.75 1229.75 75.75 Z  M 1229.75 80.708 C 1243.442 80.708 1254.542 91.808 1254.542 105.5 C 1254.542 119.192 1243.442 130.292 1229.75 130.292 C 1216.058 130.292 1204.958 119.192 1204.958 105.5 C 1204.958 91.808 1216.058 80.708 1229.75 80.708 Z  M 1229.75 90.161 C 1229.294 90.161 1228.917 90.151 1228.51 90.236 C 1228.113 90.336 1227.742 90.522 1227.425 90.781 C 1227.121 91.03 1226.883 91.349 1226.73 91.711 C 1226.554 92.088 1226.495 92.534 1226.495 93.104 C 1226.495 93.667 1226.554 94.111 1226.728 94.5 C 1226.901 94.887 1227.125 95.194 1227.425 95.43 C 1227.727 95.66 1228.104 95.797 1228.51 95.893 C 1228.917 95.992 1229.294 96.049 1229.75 96.049 C 1230.196 96.049 1230.67 95.99 1231.066 95.893 C 1231.463 95.794 1231.773 95.66 1232.073 95.427 C 1232.38 95.181 1232.62 94.861 1232.772 94.497 C 1232.946 94.121 1233.082 93.667 1233.082 93.104 C 1233.082 92.534 1232.946 92.088 1232.772 91.708 C 1232.618 91.347 1232.379 91.028 1232.075 90.779 C 1231.773 90.548 1231.463 90.325 1231.066 90.238 C 1230.67 90.151 1230.196 90.159 1229.75 90.159 L 1229.75 90.161 Z  M 1226.728 98.449 L 1226.728 120.685 L 1232.772 120.685 L 1232.772 98.449 L 1226.728 98.449 Z " fill="rgb(0,0,0)"/><path d=" M 1308.25 75.75 C 1291.83 75.775 1278.525 89.08 1278.5 105.5 C 1278.525 121.92 1291.83 135.225 1308.25 135.25 C 1324.67 135.225 1337.975 121.92 1338 105.5 C 1337.975 89.08 1324.67 75.775 1308.25 75.75 L 1308.25 75.75 Z  M 1308.25 80.327 C 1322.178 80.327 1333.423 91.572 1333.423 105.5 C 1333.423 119.428 1322.178 130.673 1308.25 130.673 C 1301.571 130.682 1295.163 128.032 1290.441 123.309 C 1285.718 118.587 1283.068 112.179 1283.077 105.5 C 1283.077 91.572 1294.322 80.327 1308.25 80.327 Z  M 1308.52 89.481 C 1302.977 89.801 1298.451 94.451 1298.451 100.099 L 1303.028 100.099 C 1303.008 98.294 1303.801 96.577 1305.189 95.422 C 1306.577 94.268 1308.411 93.801 1310.181 94.149 C 1312.987 94.63 1315.207 97.385 1315.115 100.282 C 1315.042 102.818 1313.559 104.429 1311.381 105.395 C 1310.021 105.999 1308.731 106.571 1307.641 107.715 C 1306.552 108.859 1305.962 110.557 1305.962 112.365 L 1310.538 112.365 C 1310.538 111.326 1310.68 111.166 1310.969 110.864 C 1311.234 110.576 1311.985 110.132 1313.221 109.578 C 1316.635 108.091 1319.569 104.818 1319.692 100.424 C 1319.853 95.22 1316.118 90.52 1310.95 89.623 C 1310.147 89.497 1309.333 89.449 1308.52 89.481 Z  M 1305.962 116.942 L 1305.962 121.519 L 1310.538 121.519 L 1310.538 116.942 L 1305.962 116.942 Z " fill="rgb(0,0,0)"/><text transform="matrix(0.961,-0.276,0.276,0.961,45.238,163.499)" style="font-family:'Oleo Script Swash Caps';font-weight:400;font-size:36px;font-style:normal;fill:#000000;stroke:none;">TOP LOGO HERE</text><path d=" M 1200.778 155.985 C 1200.35 155.985 1200 156.335 1200 156.763 L 1200 183.207 C 1200 183.635 1200.35 183.985 1200.778 183.985 L 1235 183.985 C 1235.428 183.985 1235.778 183.635 1235.778 183.207 L 1235.778 156.763 C 1235.778 156.335 1235.428 155.985 1235 155.985 L 1200.778 155.985 Z  M 1201.556 157.54 L 1234.222 157.54 L 1234.222 182.429 L 1201.556 182.429 L 1201.556 157.54 Z  M 1217.889 160.652 L 1215.461 162.885 L 1212.119 162.435 L 1211.536 165.597 L 1208.556 167.102 L 1210.038 169.985 L 1208.556 172.868 L 1211.536 174.372 L 1212.119 177.535 L 1215.461 177.085 L 1217.889 179.318 L 1220.316 177.085 L 1223.658 177.535 L 1224.242 174.372 L 1227.222 172.868 L 1225.74 169.985 L 1227.222 167.102 L 1224.242 165.597 L 1223.658 162.435 L 1220.316 162.885 L 1217.889 160.652 Z  M 1217.889 162.766 L 1219.797 164.525 L 1222.398 164.176 L 1222.85 166.64 L 1225.123 167.785 L 1223.99 169.985 L 1225.123 172.184 L 1222.85 173.333 L 1222.398 175.797 L 1219.797 175.447 L 1217.889 177.203 L 1217.889 162.766 Z " fill="rgb(0,0,0)"/><path d=" M 1269.548 155.985 L 1247.148 155.985 C 1245.606 155.985 1244.348 157.242 1244.348 158.785 L 1244.348 181.185 C 1244.348 182.728 1245.606 183.985 1247.148 183.985 L 1269.548 183.985 C 1271.091 183.985 1272.348 182.728 1272.348 181.185 L 1272.348 158.785 C 1272.348 157.242 1271.091 155.985 1269.548 155.985 Z  M 1256.948 158.785 C 1258.495 158.785 1259.748 160.038 1259.748 161.585 C 1259.748 163.131 1258.495 164.385 1256.948 164.385 C 1255.402 164.385 1254.148 163.131 1254.148 161.585 C 1254.148 160.038 1255.402 158.785 1256.948 158.785 Z  M 1254.148 181.185 C 1250.558 181.181 1247.552 178.461 1247.191 174.888 C 1246.83 171.316 1249.231 168.049 1252.748 167.328 L 1252.748 170.242 C 1251.124 170.822 1249.948 172.363 1249.948 174.185 C 1249.948 176.498 1251.836 178.385 1254.148 178.385 C 1255.385 178.385 1256.489 177.839 1257.255 176.985 L 1260.559 176.985 C 1259.448 179.535 1256.931 181.185 1254.148 181.185 Z  M 1266.579 179.375 L 1262.789 175.585 L 1256.948 175.585 C 1255.401 175.585 1254.148 174.612 1254.148 173.408 L 1254.148 167.962 C 1254.148 166.758 1255.401 165.785 1256.948 165.785 C 1258.495 165.785 1259.748 166.758 1259.748 167.962 L 1259.748 172.785 L 1263.948 172.785 L 1268.559 177.395 L 1266.579 179.375 Z " fill="rgb(0,0,0)"/><path d=" M 1333.011 173.533 L 1332.899 173.533 C 1332.041 175.946 1330.486 177.149 1328.228 177.149 C 1326.534 177.149 1325.172 176.52 1324.135 175.255 C 1323.096 173.994 1322.577 172.244 1322.577 170.01 C 1322.577 167.122 1323.295 164.769 1324.733 162.953 C 1326.166 161.144 1327.897 160.238 1329.917 160.238 C 1331.747 160.238 1332.894 160.975 1333.361 162.454 L 1333.437 162.454 L 1333.618 160.578 L 1337.758 160.578 C 1337.207 165.959 1336.926 169.473 1336.926 171.13 C 1336.926 172.898 1337.393 173.78 1338.326 173.78 C 1339.312 173.78 1340.118 173.108 1340.757 171.773 C 1341.393 170.434 1341.714 168.684 1341.714 166.529 C 1341.714 163.575 1340.8 161.153 1338.97 159.262 C 1337.142 157.377 1334.593 156.431 1331.317 156.431 C 1327.809 156.431 1324.891 157.69 1322.568 160.209 C 1320.244 162.73 1319.082 165.8 1319.082 169.426 C 1319.082 172.936 1320.109 175.698 1322.162 177.719 C 1324.22 179.739 1327.053 180.752 1330.673 180.752 C 1333.437 180.752 1335.961 180.211 1338.257 179.123 L 1338.257 182.74 C 1336.157 183.66 1333.459 184.121 1330.16 184.121 C 1325.629 184.121 1321.947 182.787 1319.109 180.117 C 1316.269 177.443 1314.849 173.854 1314.849 169.347 C 1314.849 164.75 1316.366 160.891 1319.395 157.759 C 1322.423 154.63 1326.324 153.061 1331.099 153.061 C 1335.513 153.061 1339.087 154.274 1341.817 156.704 C 1344.548 159.138 1345.91 162.343 1345.91 166.32 C 1345.91 169.591 1345.074 172.213 1343.408 174.193 C 1341.738 176.166 1339.67 177.155 1337.207 177.155 C 1335.993 177.155 1335.004 176.82 1334.244 176.152 C 1333.483 175.48 1333.072 174.607 1333.011 173.534 L 1333.011 173.533 Z  M 1330.562 163.533 C 1329.46 163.533 1328.56 164.181 1327.868 165.474 C 1327.173 166.771 1326.829 168.27 1326.829 169.972 C 1326.829 171.186 1327.067 172.128 1327.538 172.804 C 1328.009 173.482 1328.615 173.817 1329.367 173.817 C 1330.519 173.817 1331.43 173.183 1332.093 171.904 C 1332.75 170.63 1333.082 168.927 1333.082 166.794 C 1333.082 165.781 1332.853 164.988 1332.391 164.405 C 1331.934 163.827 1331.322 163.533 1330.561 163.533 L 1330.562 163.533 Z " fill="rgb(0,0,0)"/><path d=" M 968 183.015 L 962.385 183.015 L 962.385 153.061 L 958.391 153.061 L 958.391 183.015 L 952.773 183.015 L 960.388 193 L 968 183.015 Z  M 948.406 155.058 L 928.436 155.058 L 928.436 159.052 L 948.406 159.052 L 948.406 155.058 Z  M 948.406 163.045 L 928.436 163.045 L 928.436 167.039 L 948.406 167.039 L 948.406 163.045 Z  M 948.406 171.033 L 928.436 171.033 L 928.436 175.027 L 948.406 175.027 L 948.406 171.033 Z  M 948.406 179.021 L 928.436 179.021 L 928.436 183.015 L 948.406 183.015 L 948.406 179.021 Z  M 948.406 187.009 L 928.436 187.009 L 928.436 191.003 L 948.406 191.003 L 948.406 187.009 Z " fill="rgb(0,0,0)"/><path d=" M 1019.564 183.485 L 1013.948 183.485 L 1013.948 153.53 L 1009.955 153.53 L 1009.955 183.485 L 1004.337 183.485 L 1011.952 193.47 L 1019.564 183.485 Z  M 999.97 155.527 L 980 155.527 L 980 159.521 L 999.97 159.521 L 999.97 155.527 Z  M 999.97 163.515 L 980 163.515 L 980 167.509 L 999.97 167.509 L 999.97 163.515 Z  M 999.97 171.503 L 980 171.503 L 980 175.497 L 999.97 175.497 L 999.97 171.503 Z  M 999.97 179.491 L 980 179.491 L 980 183.485 L 999.97 183.485 L 999.97 179.491 Z  M 999.97 187.479 L 980 187.479 L 980 191.473 L 999.97 191.473 L 999.97 187.479 Z " fill="rgb(0,0,0)"/><path d=" M 1065.5 183.015 L 1059.885 183.015 L 1059.885 153.061 L 1055.891 153.061 L 1055.891 183.015 L 1050.273 183.015 L 1057.888 193 L 1065.5 183.015 Z  M 1045.906 155.058 L 1025.936 155.058 L 1025.936 159.052 L 1045.906 159.052 L 1045.906 155.058 Z  M 1045.906 163.045 L 1025.936 163.045 L 1025.936 167.039 L 1045.906 167.039 L 1045.906 163.045 Z  M 1045.906 171.033 L 1025.936 171.033 L 1025.936 175.027 L 1045.906 175.027 L 1045.906 171.033 Z  M 1045.906 179.021 L 1025.936 179.021 L 1025.936 183.015 L 1045.906 183.015 L 1045.906 179.021 Z  M 1045.906 187.009 L 1025.936 187.009 L 1025.936 191.003 L 1045.906 191.003 L 1045.906 187.009 Z " fill="rgb(0,0,0)"/><path d=" M 1280.177 155.985 C 1279.552 155.985 1278.912 156.205 1278.459 156.657 C 1278.008 157.108 1277.788 157.749 1277.788 158.374 L 1277.788 175.099 C 1277.788 175.724 1278.008 176.364 1278.46 176.817 C 1278.911 177.269 1279.552 177.488 1280.177 177.488 L 1287.345 177.488 L 1287.345 184.656 C 1287.345 185.973 1288.418 187.045 1289.734 187.045 L 1306.459 187.045 C 1307.776 187.045 1308.848 185.973 1308.848 184.656 L 1308.848 167.931 C 1308.848 166.615 1307.776 165.542 1306.459 165.542 L 1299.291 165.542 L 1299.291 158.374 C 1299.291 157.749 1299.072 157.109 1298.619 156.656 C 1298.168 156.205 1297.527 155.985 1296.902 155.985 L 1280.177 155.985 Z  M 1306.459 155.985 L 1302.875 159.569 L 1306.459 163.153 L 1306.459 155.985 Z  M 1280.177 158.374 L 1296.902 158.374 L 1296.902 166.737 L 1288.54 175.099 L 1280.177 175.099 L 1280.177 158.374 Z  M 1287.345 160.763 L 1287.345 161.958 L 1282.566 161.958 L 1282.566 164.347 L 1290.593 164.347 C 1290.023 165.64 1289.049 166.746 1288.018 167.67 C 1287.957 167.628 1287.891 167.6 1287.83 167.557 C 1286.767 166.826 1286.15 165.962 1286.15 165.542 L 1283.761 165.542 C 1283.761 167.18 1284.867 168.323 1286.038 169.201 C 1285.206 169.753 1284.333 170.24 1283.425 170.656 L 1284.321 172.859 C 1284.321 172.859 1286.263 172.15 1288.353 170.619 C 1289.015 170.942 1289.622 171.179 1290.07 171.329 L 1290.817 169.052 C 1290.719 169.018 1290.508 168.92 1290.369 168.864 C 1291.536 167.66 1292.581 166.152 1293.132 164.347 L 1294.513 164.347 L 1294.513 161.958 L 1289.734 161.958 L 1289.734 160.763 L 1287.345 160.763 Z  M 1297.276 171.03 L 1300.113 171.03 L 1304.07 182.267 L 1301.456 182.267 L 1300.598 179.653 L 1296.528 179.653 L 1295.821 182.267 L 1293.318 182.267 L 1297.276 171.03 Z  M 1298.694 172.822 C 1298.572 173.419 1298.111 175.085 1297.275 177.713 L 1300.112 177.713 C 1299.394 175.324 1298.927 173.919 1298.806 173.681 C 1298.684 173.204 1298.694 172.943 1298.694 172.821 L 1298.694 172.822 Z  M 1280.177 179.878 L 1280.177 187.045 L 1283.761 183.462 L 1280.177 179.878 Z " fill="rgb(0,0,0)"/></g></svg>